<?xml version="1.0" encoding="UTF-8" standalone="no"?>
<!DOCTYPE svg PUBLIC "-//W3C//DTD SVG 1.1//EN"
 "http://www.w3.org/Graphics/SVG/1.1/DTD/svg11.dtd">
<!-- Generated by graphviz version 2.38.0 (20140413.2041)
 -->
<!-- Title: anatomical_pipeline Pages: 1 -->
<svg width="323pt" height="873pt"
 viewBox="0.00 0.00 323.00 873.00" xmlns="http://www.w3.org/2000/svg" xmlns:xlink="http://www.w3.org/1999/xlink">
<g id="graph0" class="graph" transform="scale(1 1) rotate(0) translate(4 869)">
<title>anatomical_pipeline</title>
<polygon fill="white" stroke="none" points="-4,4 -4,-869 319,-869 319,4 -4,4"/>
<text text-anchor="middle" x="157.5" y="-7.8" font-family="Times,serif" font-size="14.00">anatomical_pipeline</text>
<g id="clust1" class="cluster"><title>cluster_anatomical_pipeline_segmentation_stage</title>
<polygon fill="#b4b4ff" stroke="black" points="93,-386 93,-749 307,-749 307,-386 93,-386"/>
<text text-anchor="middle" x="200" y="-733.8" font-family="Times,serif" font-size="14.00">segmentation_stage</text>
</g>
<g id="clust2" class="cluster"><title>cluster_anatomical_pipeline_parcellation_stage</title>
<polygon fill="#b4b4ff" stroke="black" points="8,-159 8,-378 240,-378 240,-159 8,-159"/>
<text text-anchor="middle" x="124" y="-362.8" font-family="Times,serif" font-size="14.00">parcellation_stage</text>
</g>
<!-- anatomical_pipeline_datasource -->
<g id="node1" class="node"><title>anatomical_pipeline_datasource</title>
<ellipse fill="#ffffc8" stroke="black" cx="200" cy="-847" rx="63.8893" ry="18"/>
<text text-anchor="middle" x="200" y="-843.3" font-family="Times,serif" font-size="14.00">datasource (io)</text>
</g>
<!-- anatomical_pipeline_inputnode -->
<g id="node2" class="node"><title>anatomical_pipeline_inputnode</title>
<ellipse fill="#ffffc8" stroke="black" cx="200" cy="-775" rx="75.2868" ry="18"/>
<text text-anchor="middle" x="200" y="-771.3" font-family="Times,serif" font-size="14.00">inputnode (utility)</text>
</g>
<!-- anatomical_pipeline_datasource&#45;&gt;anatomical_pipeline_inputnode -->
<g id="edge1" class="edge"><title>anatomical_pipeline_datasource&#45;&gt;anatomical_pipeline_inputnode</title>
<path fill="none" stroke="black" d="M200,-828.697C200,-820.983 200,-811.712 200,-803.112"/>
<polygon fill="black" stroke="black" points="203.5,-803.104 200,-793.104 196.5,-803.104 203.5,-803.104"/>
</g>
<!-- anatomical_pipeline_segmentation_stage_inputnode -->
<g id="node5" class="node"><title>anatomical_pipeline_segmentation_stage_inputnode</title>
<ellipse fill="#e6e6ff" stroke="black" cx="200" cy="-700" rx="75.2868" ry="18"/>
<text text-anchor="middle" x="200" y="-696.3" font-family="Times,serif" font-size="14.00">inputnode (utility)</text>
</g>
<!-- anatomical_pipeline_inputnode&#45;&gt;anatomical_pipeline_segmentation_stage_inputnode -->
<g id="edge35" class="edge"><title>anatomical_pipeline_inputnode&#45;&gt;anatomical_pipeline_segmentation_stage_inputnode</title>
<path fill="none" stroke="black" d="M200,-756.7C200,-748.245 200,-737.869 200,-728.373"/>
<polygon fill="black" stroke="black" points="203.5,-728.176 200,-718.176 196.5,-728.176 203.5,-728.176"/>
</g>
<!-- anatomical_pipeline_outputnode -->
<g id="node3" class="node"><title>anatomical_pipeline_outputnode</title>
<ellipse fill="#ffffc8" stroke="black" cx="124" cy="-113" rx="79.0865" ry="18"/>
<text text-anchor="middle" x="124" y="-109.3" font-family="Times,serif" font-size="14.00">outputnode (utility)</text>
</g>
<!-- anatomical_pipeline_anatomical_sinker -->
<g id="node4" class="node"><title>anatomical_pipeline_anatomical_sinker</title>
<ellipse fill="#ffffc8" stroke="black" cx="124" cy="-41" rx="90.9839" ry="18"/>
<text text-anchor="middle" x="124" y="-37.3" font-family="Times,serif" font-size="14.00">anatomical_sinker (io)</text>
</g>
<!-- anatomical_pipeline_outputnode&#45;&gt;anatomical_pipeline_anatomical_sinker -->
<g id="edge17" class="edge"><title>anatomical_pipeline_outputnode&#45;&gt;anatomical_pipeline_anatomical_sinker</title>
<path fill="none" stroke="black" d="M106.48,-95.411C103.892,-87.507 103.144,-77.8518 104.236,-68.9352"/>
<polygon fill="black" stroke="black" points="107.701,-69.4661 106.362,-58.9562 100.855,-68.0073 107.701,-69.4661"/>
</g>
<!-- anatomical_pipeline_outputnode&#45;&gt;anatomical_pipeline_anatomical_sinker -->
<g id="edge18" class="edge"><title>anatomical_pipeline_outputnode&#45;&gt;anatomical_pipeline_anatomical_sinker</title>
<path fill="none" stroke="black" d="M118.084,-94.6966C117.289,-86.9827 117.062,-77.7125 117.405,-69.1124"/>
<polygon fill="black" stroke="black" points="120.898,-69.3243 118.105,-59.1043 113.915,-68.8356 120.898,-69.3243"/>
</g>
<!-- anatomical_pipeline_outputnode&#45;&gt;anatomical_pipeline_anatomical_sinker -->
<g id="edge19" class="edge"><title>anatomical_pipeline_outputnode&#45;&gt;anatomical_pipeline_anatomical_sinker</title>
<path fill="none" stroke="black" d="M129.916,-94.6966C130.711,-86.9827 130.938,-77.7125 130.595,-69.1124"/>
<polygon fill="black" stroke="black" points="134.085,-68.8356 129.895,-59.1043 127.102,-69.3243 134.085,-68.8356"/>
</g>
<!-- anatomical_pipeline_outputnode&#45;&gt;anatomical_pipeline_anatomical_sinker -->
<g id="edge20" class="edge"><title>anatomical_pipeline_outputnode&#45;&gt;anatomical_pipeline_anatomical_sinker</title>
<path fill="none" stroke="black" d="M141.52,-95.411C144.108,-87.507 144.856,-77.8518 143.764,-68.9352"/>
<polygon fill="black" stroke="black" points="147.145,-68.0073 141.638,-58.9562 140.299,-69.4661 147.145,-68.0073"/>
</g>
<!-- anatomical_pipeline_segmentation_stage_mgz_convert -->
<g id="node6" class="node"><title>anatomical_pipeline_segmentation_stage_mgz_convert</title>
<ellipse fill="#e6e6ff" stroke="black" cx="200" cy="-628" rx="99.3824" ry="18"/>
<text text-anchor="middle" x="200" y="-624.3" font-family="Times,serif" font-size="14.00">mgz_convert (freesurfer)</text>
</g>
<!-- anatomical_pipeline_segmentation_stage_inputnode&#45;&gt;anatomical_pipeline_segmentation_stage_mgz_convert -->
<g id="edge2" class="edge"><title>anatomical_pipeline_segmentation_stage_inputnode&#45;&gt;anatomical_pipeline_segmentation_stage_mgz_convert</title>
<path fill="none" stroke="#0000ff" d="M200,-681.697C200,-673.983 200,-664.712 200,-656.112"/>
<polygon fill="#0000ff" stroke="#0000ff" points="203.5,-656.104 200,-646.104 196.5,-656.104 203.5,-656.104"/>
</g>
<!-- anatomical_pipeline_segmentation_stage_copy_orig -->
<g id="node7" class="node"><title>anatomical_pipeline_segmentation_stage_copy_orig</title>
<ellipse fill="#e6e6ff" stroke="black" cx="200" cy="-556" rx="75.2868" ry="18"/>
<text text-anchor="middle" x="200" y="-552.3" font-family="Times,serif" font-size="14.00">copy_orig (utility)</text>
</g>
<!-- anatomical_pipeline_segmentation_stage_mgz_convert&#45;&gt;anatomical_pipeline_segmentation_stage_copy_orig -->
<g id="edge3" class="edge"><title>anatomical_pipeline_segmentation_stage_mgz_convert&#45;&gt;anatomical_pipeline_segmentation_stage_copy_orig</title>
<path fill="none" stroke="#0000ff" d="M200,-609.697C200,-601.983 200,-592.712 200,-584.112"/>
<polygon fill="#0000ff" stroke="#0000ff" points="203.5,-584.104 200,-574.104 196.5,-584.104 203.5,-584.104"/>
</g>
<!-- anatomical_pipeline_segmentation_stage_reconall -->
<g id="node8" class="node"><title>anatomical_pipeline_segmentation_stage_reconall</title>
<ellipse fill="#e6e6ff" stroke="black" cx="200" cy="-484" rx="81.4863" ry="18"/>
<text text-anchor="middle" x="200" y="-480.3" font-family="Times,serif" font-size="14.00">reconall (freesurfer)</text>
</g>
<!-- anatomical_pipeline_segmentation_stage_copy_orig&#45;&gt;anatomical_pipeline_segmentation_stage_reconall -->
<g id="edge4" class="edge"><title>anatomical_pipeline_segmentation_stage_copy_orig&#45;&gt;anatomical_pipeline_segmentation_stage_reconall</title>
<path fill="none" stroke="#0000ff" d="M200,-537.697C200,-529.983 200,-520.712 200,-512.112"/>
<polygon fill="#0000ff" stroke="#0000ff" points="203.5,-512.104 200,-502.104 196.5,-512.104 203.5,-512.104"/>
</g>
<!-- anatomical_pipeline_segmentation_stage_outputnode -->
<g id="node9" class="node"><title>anatomical_pipeline_segmentation_stage_outputnode</title>
<ellipse fill="#e6e6ff" stroke="black" cx="200" cy="-412" rx="79.0865" ry="18"/>
<text text-anchor="middle" x="200" y="-408.3" font-family="Times,serif" font-size="14.00">outputnode (utility)</text>
</g>
<!-- anatomical_pipeline_segmentation_stage_reconall&#45;&gt;anatomical_pipeline_segmentation_stage_outputnode -->
<g id="edge5" class="edge"><title>anatomical_pipeline_segmentation_stage_reconall&#45;&gt;anatomical_pipeline_segmentation_stage_outputnode</title>
<path fill="none" stroke="#0000ff" d="M194.084,-465.697C193.289,-457.983 193.062,-448.712 193.405,-440.112"/>
<polygon fill="#0000ff" stroke="#0000ff" points="196.898,-440.324 194.105,-430.104 189.915,-439.836 196.898,-440.324"/>
</g>
<!-- anatomical_pipeline_segmentation_stage_reconall&#45;&gt;anatomical_pipeline_segmentation_stage_outputnode -->
<g id="edge6" class="edge"><title>anatomical_pipeline_segmentation_stage_reconall&#45;&gt;anatomical_pipeline_segmentation_stage_outputnode</title>
<path fill="none" stroke="#0000ff" d="M205.916,-465.697C206.711,-457.983 206.938,-448.712 206.595,-440.112"/>
<polygon fill="#0000ff" stroke="#0000ff" points="210.085,-439.836 205.895,-430.104 203.102,-440.324 210.085,-439.836"/>
</g>
<!-- anatomical_pipeline_segmentation_stage_outputnode&#45;&gt;anatomical_pipeline_outputnode -->
<g id="edge21" class="edge"><title>anatomical_pipeline_segmentation_stage_outputnode&#45;&gt;anatomical_pipeline_outputnode</title>
<path fill="none" stroke="black" d="M221.091,-394.625C226.558,-390.036 231.755,-384.491 235,-378 278.529,-290.942 290.441,-239.001 235,-159 225.094,-144.706 210.051,-134.946 194.188,-128.283"/>
<polygon fill="black" stroke="black" points="195.376,-124.991 184.785,-124.707 192.888,-131.533 195.376,-124.991"/>
</g>
<!-- anatomical_pipeline_segmentation_stage_outputnode&#45;&gt;anatomical_pipeline_outputnode -->
<g id="edge22" class="edge"><title>anatomical_pipeline_segmentation_stage_outputnode&#45;&gt;anatomical_pipeline_outputnode</title>
<path fill="none" stroke="black" d="M236.721,-396.043C243.443,-391.193 249.413,-385.174 253,-378 296.529,-290.942 308.441,-239.001 253,-159 241.292,-142.105 222.407,-131.544 202.626,-124.945"/>
<polygon fill="black" stroke="black" points="203.456,-121.54 192.871,-122.013 201.441,-128.243 203.456,-121.54"/>
</g>
<!-- anatomical_pipeline_parcellation_stage_inputnode -->
<g id="node10" class="node"><title>anatomical_pipeline_parcellation_stage_inputnode</title>
<ellipse fill="#e6e6ff" stroke="black" cx="128" cy="-329" rx="75.2868" ry="18"/>
<text text-anchor="middle" x="128" y="-325.3" font-family="Times,serif" font-size="14.00">inputnode (utility)</text>
</g>
<!-- anatomical_pipeline_segmentation_stage_outputnode&#45;&gt;anatomical_pipeline_parcellation_stage_inputnode -->
<g id="edge23" class="edge"><title>anatomical_pipeline_segmentation_stage_outputnode&#45;&gt;anatomical_pipeline_parcellation_stage_inputnode</title>
<path fill="none" stroke="black" d="M179.489,-394.217C168.162,-382.889 154.463,-367.74 143.932,-355"/>
<polygon fill="black" stroke="black" points="146.523,-352.636 137.526,-347.04 141.069,-357.025 146.523,-352.636"/>
</g>
<!-- anatomical_pipeline_segmentation_stage_outputnode&#45;&gt;anatomical_pipeline_parcellation_stage_inputnode -->
<g id="edge24" class="edge"><title>anatomical_pipeline_segmentation_stage_outputnode&#45;&gt;anatomical_pipeline_parcellation_stage_inputnode</title>
<path fill="none" stroke="black" d="M190.367,-393.822C181.274,-382.176 167.644,-366.627 155.36,-353.792"/>
<polygon fill="black" stroke="black" points="157.821,-351.303 148.327,-346.599 152.815,-356.196 157.821,-351.303"/>
</g>
<!-- anatomical_pipeline_parcellation_stage_Lausanne2008_parcellation -->
<g id="node11" class="node"><title>anatomical_pipeline_parcellation_stage_Lausanne2008_parcellation</title>
<ellipse fill="#e6e6ff" stroke="black" cx="124" cy="-257" rx="107.781" ry="18"/>
<text text-anchor="middle" x="124" y="-253.3" font-family="Times,serif" font-size="14.00">Lausanne2008_parcellation</text>
</g>
<!-- anatomical_pipeline_parcellation_stage_inputnode&#45;&gt;anatomical_pipeline_parcellation_stage_Lausanne2008_parcellation -->
<g id="edge7" class="edge"><title>anatomical_pipeline_parcellation_stage_inputnode&#45;&gt;anatomical_pipeline_parcellation_stage_Lausanne2008_parcellation</title>
<path fill="none" stroke="#0000ff" d="M121.153,-311.055C119.895,-303.346 119.12,-294.027 118.959,-285.364"/>
<polygon fill="#0000ff" stroke="#0000ff" points="122.459,-285.315 119.074,-275.275 115.46,-285.234 122.459,-285.315"/>
</g>
<!-- anatomical_pipeline_parcellation_stage_inputnode&#45;&gt;anatomical_pipeline_parcellation_stage_Lausanne2008_parcellation -->
<g id="edge8" class="edge"><title>anatomical_pipeline_parcellation_stage_inputnode&#45;&gt;anatomical_pipeline_parcellation_stage_Lausanne2008_parcellation</title>
<path fill="none" stroke="#0000ff" d="M132.927,-310.697C133.282,-302.983 132.979,-293.712 132.145,-285.112"/>
<polygon fill="#0000ff" stroke="#0000ff" points="135.606,-284.583 130.872,-275.104 128.661,-285.466 135.606,-284.583"/>
</g>
<!-- anatomical_pipeline_parcellation_stage_outputnode -->
<g id="node12" class="node"><title>anatomical_pipeline_parcellation_stage_outputnode</title>
<ellipse fill="#e6e6ff" stroke="black" cx="124" cy="-185" rx="79.0865" ry="18"/>
<text text-anchor="middle" x="124" y="-181.3" font-family="Times,serif" font-size="14.00">outputnode (utility)</text>
</g>
<!-- anatomical_pipeline_parcellation_stage_Lausanne2008_parcellation&#45;&gt;anatomical_pipeline_parcellation_stage_outputnode -->
<g id="edge9" class="edge"><title>anatomical_pipeline_parcellation_stage_Lausanne2008_parcellation&#45;&gt;anatomical_pipeline_parcellation_stage_outputnode</title>
<path fill="none" stroke="#0000ff" d="M83.6743,-240.116C76.3933,-231.098 74.8544,-219.638 79.0575,-209.587"/>
<polygon fill="#0000ff" stroke="#0000ff" points="82.1807,-211.195 84.5317,-200.864 76.2515,-207.474 82.1807,-211.195"/>
</g>
<!-- anatomical_pipeline_parcellation_stage_Lausanne2008_parcellation&#45;&gt;anatomical_pipeline_parcellation_stage_outputnode -->
<g id="edge10" class="edge"><title>anatomical_pipeline_parcellation_stage_Lausanne2008_parcellation&#45;&gt;anatomical_pipeline_parcellation_stage_outputnode</title>
<path fill="none" stroke="#0000ff" d="M94.8004,-239.411C90.2641,-231.098 89.1195,-220.847 91.3666,-211.556"/>
<polygon fill="#0000ff" stroke="#0000ff" points="94.7269,-212.575 95.1362,-201.988 88.2141,-210.009 94.7269,-212.575"/>
</g>
<!-- anatomical_pipeline_parcellation_stage_Lausanne2008_parcellation&#45;&gt;anatomical_pipeline_parcellation_stage_outputnode -->
<g id="edge11" class="edge"><title>anatomical_pipeline_parcellation_stage_Lausanne2008_parcellation&#45;&gt;anatomical_pipeline_parcellation_stage_outputnode</title>
<path fill="none" stroke="#0000ff" d="M106.365,-239.055C103.847,-231.145 103.147,-221.54 104.266,-212.688"/>
<polygon fill="#0000ff" stroke="#0000ff" points="107.714,-213.304 106.415,-202.789 100.873,-211.819 107.714,-213.304"/>
</g>
<!-- anatomical_pipeline_parcellation_stage_Lausanne2008_parcellation&#45;&gt;anatomical_pipeline_parcellation_stage_outputnode -->
<g id="edge12" class="edge"><title>anatomical_pipeline_parcellation_stage_Lausanne2008_parcellation&#45;&gt;anatomical_pipeline_parcellation_stage_outputnode</title>
<path fill="none" stroke="#0000ff" d="M118.084,-238.697C117.289,-230.983 117.062,-221.712 117.405,-213.112"/>
<polygon fill="#0000ff" stroke="#0000ff" points="120.898,-213.324 118.105,-203.104 113.915,-212.836 120.898,-213.324"/>
</g>
<!-- anatomical_pipeline_parcellation_stage_Lausanne2008_parcellation&#45;&gt;anatomical_pipeline_parcellation_stage_outputnode -->
<g id="edge13" class="edge"><title>anatomical_pipeline_parcellation_stage_Lausanne2008_parcellation&#45;&gt;anatomical_pipeline_parcellation_stage_outputnode</title>
<path fill="none" stroke="#0000ff" d="M129.916,-238.697C130.711,-230.983 130.938,-221.712 130.595,-213.112"/>
<polygon fill="#0000ff" stroke="#0000ff" points="134.085,-212.836 129.895,-203.104 127.102,-213.324 134.085,-212.836"/>
</g>
<!-- anatomical_pipeline_parcellation_stage_Lausanne2008_parcellation&#45;&gt;anatomical_pipeline_parcellation_stage_outputnode -->
<g id="edge14" class="edge"><title>anatomical_pipeline_parcellation_stage_Lausanne2008_parcellation&#45;&gt;anatomical_pipeline_parcellation_stage_outputnode</title>
<path fill="none" stroke="#0000ff" d="M141.635,-239.055C144.153,-231.145 144.853,-221.54 143.734,-212.688"/>
<polygon fill="#0000ff" stroke="#0000ff" points="147.127,-211.819 141.585,-202.789 140.286,-213.304 147.127,-211.819"/>
</g>
<!-- anatomical_pipeline_parcellation_stage_Lausanne2008_parcellation&#45;&gt;anatomical_pipeline_parcellation_stage_outputnode -->
<g id="edge15" class="edge"><title>anatomical_pipeline_parcellation_stage_Lausanne2008_parcellation&#45;&gt;anatomical_pipeline_parcellation_stage_outputnode</title>
<path fill="none" stroke="#0000ff" d="M153.2,-239.411C157.736,-231.098 158.881,-220.847 156.633,-211.556"/>
<polygon fill="#0000ff" stroke="#0000ff" points="159.786,-210.009 152.864,-201.988 153.273,-212.575 159.786,-210.009"/>
</g>
<!-- anatomical_pipeline_parcellation_stage_Lausanne2008_parcellation&#45;&gt;anatomical_pipeline_parcellation_stage_outputnode -->
<g id="edge16" class="edge"><title>anatomical_pipeline_parcellation_stage_Lausanne2008_parcellation&#45;&gt;anatomical_pipeline_parcellation_stage_outputnode</title>
<path fill="none" stroke="#0000ff" d="M164.326,-240.116C171.607,-231.098 173.146,-219.638 168.943,-209.587"/>
<polygon fill="#0000ff" stroke="#0000ff" points="171.748,-207.474 163.468,-200.864 165.819,-211.195 171.748,-207.474"/>
</g>
<!-- anatomical_pipeline_parcellation_stage_outputnode&#45;&gt;anatomical_pipeline_outputnode -->
<g id="edge25" class="edge"><title>anatomical_pipeline_parcellation_stage_outputnode&#45;&gt;anatomical_pipeline_outputnode</title>
<path fill="none" stroke="black" d="M74.8779,-170.503C62.0641,-160.27 59.8408,-146.033 68.208,-134.41"/>
<polygon fill="black" stroke="black" points="70.7485,-136.818 75.231,-127.218 65.7403,-131.927 70.7485,-136.818"/>
</g>
<!-- anatomical_pipeline_parcellation_stage_outputnode&#45;&gt;anatomical_pipeline_outputnode -->
<g id="edge26" class="edge"><title>anatomical_pipeline_parcellation_stage_outputnode&#45;&gt;anatomical_pipeline_outputnode</title>
<path fill="none" stroke="black" d="M84.5481,-169.155C76.5015,-159.967 74.6822,-147.968 79.0901,-137.509"/>
<polygon fill="black" stroke="black" points="82.1936,-139.149 84.5669,-128.824 76.2724,-135.416 82.1936,-139.149"/>
</g>
<!-- anatomical_pipeline_parcellation_stage_outputnode&#45;&gt;anatomical_pipeline_outputnode -->
<g id="edge27" class="edge"><title>anatomical_pipeline_parcellation_stage_outputnode&#45;&gt;anatomical_pipeline_outputnode</title>
<path fill="none" stroke="black" d="M95.1959,-168.116C90.2925,-159.613 89.0351,-148.94 91.4235,-139.324"/>
<polygon fill="black" stroke="black" points="94.7606,-140.406 95.2322,-129.821 88.2631,-137.801 94.7606,-140.406"/>
</g>
<!-- anatomical_pipeline_parcellation_stage_outputnode&#45;&gt;anatomical_pipeline_outputnode -->
<g id="edge28" class="edge"><title>anatomical_pipeline_parcellation_stage_outputnode&#45;&gt;anatomical_pipeline_outputnode</title>
<path fill="none" stroke="black" d="M106.48,-167.411C103.892,-159.507 103.144,-149.852 104.236,-140.935"/>
<polygon fill="black" stroke="black" points="107.701,-141.466 106.362,-130.956 100.855,-140.007 107.701,-141.466"/>
</g>
<!-- anatomical_pipeline_parcellation_stage_outputnode&#45;&gt;anatomical_pipeline_outputnode -->
<g id="edge29" class="edge"><title>anatomical_pipeline_parcellation_stage_outputnode&#45;&gt;anatomical_pipeline_outputnode</title>
<path fill="none" stroke="black" d="M118.084,-166.697C117.289,-158.983 117.062,-149.712 117.405,-141.112"/>
<polygon fill="black" stroke="black" points="120.898,-141.324 118.105,-131.104 113.915,-140.836 120.898,-141.324"/>
</g>
<!-- anatomical_pipeline_parcellation_stage_outputnode&#45;&gt;anatomical_pipeline_outputnode -->
<g id="edge30" class="edge"><title>anatomical_pipeline_parcellation_stage_outputnode&#45;&gt;anatomical_pipeline_outputnode</title>
<path fill="none" stroke="black" d="M129.916,-166.697C130.711,-158.983 130.938,-149.712 130.595,-141.112"/>
<polygon fill="black" stroke="black" points="134.085,-140.836 129.895,-131.104 127.102,-141.324 134.085,-140.836"/>
</g>
<!-- anatomical_pipeline_parcellation_stage_outputnode&#45;&gt;anatomical_pipeline_outputnode -->
<g id="edge31" class="edge"><title>anatomical_pipeline_parcellation_stage_outputnode&#45;&gt;anatomical_pipeline_outputnode</title>
<path fill="none" stroke="black" d="M141.52,-167.411C144.108,-159.507 144.856,-149.852 143.764,-140.935"/>
<polygon fill="black" stroke="black" points="147.145,-140.007 141.638,-130.956 140.299,-141.466 147.145,-140.007"/>
</g>
<!-- anatomical_pipeline_parcellation_stage_outputnode&#45;&gt;anatomical_pipeline_outputnode -->
<g id="edge32" class="edge"><title>anatomical_pipeline_parcellation_stage_outputnode&#45;&gt;anatomical_pipeline_outputnode</title>
<path fill="none" stroke="black" d="M152.804,-168.116C157.707,-159.613 158.965,-148.94 156.577,-139.324"/>
<polygon fill="black" stroke="black" points="159.737,-137.801 152.768,-129.821 153.239,-140.406 159.737,-137.801"/>
</g>
<!-- anatomical_pipeline_parcellation_stage_outputnode&#45;&gt;anatomical_pipeline_outputnode -->
<g id="edge33" class="edge"><title>anatomical_pipeline_parcellation_stage_outputnode&#45;&gt;anatomical_pipeline_outputnode</title>
<path fill="none" stroke="black" d="M163.452,-169.155C171.499,-159.967 173.318,-147.968 168.91,-137.509"/>
<polygon fill="black" stroke="black" points="171.728,-135.416 163.433,-128.824 165.806,-139.149 171.728,-135.416"/>
</g>
<!-- anatomical_pipeline_parcellation_stage_outputnode&#45;&gt;anatomical_pipeline_outputnode -->
<g id="edge34" class="edge"><title>anatomical_pipeline_parcellation_stage_outputnode&#45;&gt;anatomical_pipeline_outputnode</title>
<path fill="none" stroke="black" d="M173.122,-170.503C185.936,-160.27 188.159,-146.033 179.792,-134.41"/>
<polygon fill="black" stroke="black" points="182.26,-131.927 172.769,-127.218 177.251,-136.818 182.26,-131.927"/>
</g>
</g>
</svg>
