<?xml version="1.0" encoding="UTF-8" standalone="no"?>
<!DOCTYPE svg PUBLIC "-//W3C//DTD SVG 1.1//EN"
 "http://www.w3.org/Graphics/SVG/1.1/DTD/svg11.dtd">
<!-- Generated by graphviz version 2.38.0 (20140413.2041)
 -->
<!-- Title: fMRI_pipeline Pages: 1 -->
<svg width="745pt" height="1607pt"
 viewBox="0.00 0.00 745.00 1607.00" xmlns="http://www.w3.org/2000/svg" xmlns:xlink="http://www.w3.org/1999/xlink">
<g id="graph0" class="graph" transform="scale(1 1) rotate(0) translate(4 1603)">
<title>fMRI_pipeline</title>
<polygon fill="white" stroke="none" points="-4,4 -4,-1603 741,-1603 741,4 -4,4"/>
<text text-anchor="middle" x="368.5" y="-7.8" font-family="Times,serif" font-size="14.00">fMRI_pipeline</text>
<g id="clust1" class="cluster"><title>cluster_fMRI_pipeline_preprocessing_stage</title>
<polygon fill="#b4b4ff" stroke="black" points="62,-1117 62,-1411 264,-1411 264,-1117 62,-1117"/>
<text text-anchor="middle" x="163" y="-1395.8" font-family="Times,serif" font-size="14.00">preprocessing_stage</text>
</g>
<g id="clust2" class="cluster"><title>cluster_fMRI_pipeline_registration_stage</title>
<polygon fill="#b4b4ff" stroke="black" points="325,-1034 325,-1192 679,-1192 679,-1034 325,-1034"/>
<text text-anchor="middle" x="502" y="-1176.8" font-family="Times,serif" font-size="14.00">registration_stage</text>
</g>
<g id="clust3" class="cluster"><title>cluster_fMRI_pipeline_functional_stage</title>
<polygon fill="#b4b4ff" stroke="black" points="9,-314 9,-1109 317,-1109 317,-314 9,-314"/>
<text text-anchor="middle" x="163" y="-1093.8" font-family="Times,serif" font-size="14.00">functional_stage</text>
</g>
<g id="clust4" class="cluster"><title>cluster_fMRI_pipeline_connectome_stage</title>
<polygon fill="#b4b4ff" stroke="black" points="82,-87 82,-306 346,-306 346,-87 82,-87"/>
<text text-anchor="middle" x="214" y="-290.8" font-family="Times,serif" font-size="14.00">connectome_stage</text>
</g>
<!-- fMRI_pipeline_datasource -->
<g id="node1" class="node"><title>fMRI_pipeline_datasource</title>
<ellipse fill="#ffffc8" stroke="black" cx="585" cy="-1581" rx="63.8893" ry="18"/>
<text text-anchor="middle" x="585" y="-1577.3" font-family="Times,serif" font-size="14.00">datasource (io)</text>
</g>
<!-- fMRI_pipeline_merge_roi_volumes -->
<g id="node2" class="node"><title>fMRI_pipeline_merge_roi_volumes</title>
<ellipse fill="#ffffc8" stroke="black" cx="383" cy="-1509" rx="111.28" ry="18"/>
<text text-anchor="middle" x="383" y="-1505.3" font-family="Times,serif" font-size="14.00">merge_roi_volumes (utility)</text>
</g>
<!-- fMRI_pipeline_datasource&#45;&gt;fMRI_pipeline_merge_roi_volumes -->
<g id="edge1" class="edge"><title>fMRI_pipeline_datasource&#45;&gt;fMRI_pipeline_merge_roi_volumes</title>
<path fill="none" stroke="black" d="M535.373,-1569.67C498.155,-1559.36 449.953,-1543.22 416.905,-1530.33"/>
<polygon fill="black" stroke="black" points="418.171,-1527.07 407.586,-1526.62 415.58,-1533.57 418.171,-1527.07"/>
</g>
<!-- fMRI_pipeline_datasource&#45;&gt;fMRI_pipeline_merge_roi_volumes -->
<g id="edge2" class="edge"><title>fMRI_pipeline_datasource&#45;&gt;fMRI_pipeline_merge_roi_volumes</title>
<path fill="none" stroke="black" d="M540.299,-1568.13C506.642,-1557.62 461.174,-1542.07 427.579,-1529.7"/>
<polygon fill="black" stroke="black" points="428.593,-1526.35 418,-1526.14 426.153,-1532.91 428.593,-1526.35"/>
</g>
<!-- fMRI_pipeline_datasource&#45;&gt;fMRI_pipeline_merge_roi_volumes -->
<g id="edge3" class="edge"><title>fMRI_pipeline_datasource&#45;&gt;fMRI_pipeline_merge_roi_volumes</title>
<path fill="none" stroke="black" d="M546.052,-1566.5C515.27,-1555.84 471.933,-1540.82 437.674,-1528.95"/>
<polygon fill="black" stroke="black" points="438.409,-1525.5 427.815,-1525.53 436.117,-1532.11 438.409,-1525.5"/>
</g>
<!-- fMRI_pipeline_datasource&#45;&gt;fMRI_pipeline_merge_roi_volumes -->
<g id="edge4" class="edge"><title>fMRI_pipeline_datasource&#45;&gt;fMRI_pipeline_merge_roi_volumes</title>
<path fill="none" stroke="black" d="M553.433,-1565.15C524.816,-1554.3 482.384,-1539.51 446.862,-1527.98"/>
<polygon fill="black" stroke="black" points="447.635,-1524.56 437.044,-1524.82 445.491,-1531.22 447.635,-1524.56"/>
</g>
<!-- fMRI_pipeline_datasource&#45;&gt;fMRI_pipeline_merge_roi_volumes -->
<g id="edge5" class="edge"><title>fMRI_pipeline_datasource&#45;&gt;fMRI_pipeline_merge_roi_volumes</title>
<path fill="none" stroke="black" d="M562.206,-1564.12C535.275,-1553.01 492.67,-1538.19 455.171,-1526.87"/>
<polygon fill="black" stroke="black" points="455.838,-1523.42 445.255,-1523.93 453.844,-1530.13 455.838,-1523.42"/>
</g>
<!-- fMRI_pipeline_inputnode -->
<g id="node3" class="node"><title>fMRI_pipeline_inputnode</title>
<ellipse fill="#ffffc8" stroke="black" cx="585" cy="-1437" rx="75.2868" ry="18"/>
<text text-anchor="middle" x="585" y="-1433.3" font-family="Times,serif" font-size="14.00">inputnode (utility)</text>
</g>
<!-- fMRI_pipeline_datasource&#45;&gt;fMRI_pipeline_inputnode -->
<g id="edge6" class="edge"><title>fMRI_pipeline_datasource&#45;&gt;fMRI_pipeline_inputnode</title>
<path fill="none" stroke="black" d="M554.627,-1565.07C534.397,-1540.55 532.354,-1491.53 548.498,-1462.06"/>
<polygon fill="black" stroke="black" points="551.501,-1463.86 554.092,-1453.59 545.66,-1460 551.501,-1463.86"/>
</g>
<!-- fMRI_pipeline_datasource&#45;&gt;fMRI_pipeline_inputnode -->
<g id="edge7" class="edge"><title>fMRI_pipeline_datasource&#45;&gt;fMRI_pipeline_inputnode</title>
<path fill="none" stroke="black" d="M562.683,-1563.99C549.086,-1539.61 547.617,-1492.97 558.275,-1463.78"/>
<polygon fill="black" stroke="black" points="561.488,-1465.17 562.354,-1454.61 555.092,-1462.33 561.488,-1465.17"/>
</g>
<!-- fMRI_pipeline_datasource&#45;&gt;fMRI_pipeline_inputnode -->
<g id="edge8" class="edge"><title>fMRI_pipeline_datasource&#45;&gt;fMRI_pipeline_inputnode</title>
<path fill="none" stroke="black" d="M571.336,-1563.15C563.513,-1538.81 562.659,-1493.57 568.775,-1464.67"/>
<polygon fill="black" stroke="black" points="572.204,-1465.38 571.343,-1454.82 565.431,-1463.62 572.204,-1465.38"/>
</g>
<!-- fMRI_pipeline_datasource&#45;&gt;fMRI_pipeline_inputnode -->
<g id="edge9" class="edge"><title>fMRI_pipeline_datasource&#45;&gt;fMRI_pipeline_inputnode</title>
<path fill="none" stroke="black" d="M580.416,-1562.87C577.857,-1538.67 577.566,-1494.21 579.541,-1465.39"/>
<polygon fill="black" stroke="black" points="583.049,-1465.45 580.409,-1455.19 576.074,-1464.86 583.049,-1465.45"/>
</g>
<!-- fMRI_pipeline_datasource&#45;&gt;fMRI_pipeline_inputnode -->
<g id="edge10" class="edge"><title>fMRI_pipeline_datasource&#45;&gt;fMRI_pipeline_inputnode</title>
<path fill="none" stroke="black" d="M589.584,-1562.87C592.143,-1538.67 592.434,-1494.21 590.459,-1465.39"/>
<polygon fill="black" stroke="black" points="593.926,-1464.86 589.591,-1455.19 586.951,-1465.45 593.926,-1464.86"/>
</g>
<!-- fMRI_pipeline_datasource&#45;&gt;fMRI_pipeline_inputnode -->
<g id="edge11" class="edge"><title>fMRI_pipeline_datasource&#45;&gt;fMRI_pipeline_inputnode</title>
<path fill="none" stroke="black" d="M598.664,-1563.15C606.487,-1538.81 607.341,-1493.57 601.225,-1464.67"/>
<polygon fill="black" stroke="black" points="604.569,-1463.62 598.657,-1454.82 597.796,-1465.38 604.569,-1463.62"/>
</g>
<!-- fMRI_pipeline_datasource&#45;&gt;fMRI_pipeline_inputnode -->
<g id="edge12" class="edge"><title>fMRI_pipeline_datasource&#45;&gt;fMRI_pipeline_inputnode</title>
<path fill="none" stroke="black" d="M607.317,-1563.99C620.914,-1539.61 622.383,-1492.97 611.725,-1463.78"/>
<polygon fill="black" stroke="black" points="614.908,-1462.33 607.646,-1454.61 608.512,-1465.17 614.908,-1462.33"/>
</g>
<!-- fMRI_pipeline_datasource&#45;&gt;fMRI_pipeline_inputnode -->
<g id="edge13" class="edge"><title>fMRI_pipeline_datasource&#45;&gt;fMRI_pipeline_inputnode</title>
<path fill="none" stroke="black" d="M615.373,-1565.07C635.603,-1540.55 637.646,-1491.53 621.502,-1462.06"/>
<polygon fill="black" stroke="black" points="624.34,-1460 615.908,-1453.59 618.499,-1463.86 624.34,-1460"/>
</g>
<!-- fMRI_pipeline_merge_roi_volumes&#45;&gt;fMRI_pipeline_inputnode -->
<g id="edge14" class="edge"><title>fMRI_pipeline_merge_roi_volumes&#45;&gt;fMRI_pipeline_inputnode</title>
<path fill="none" stroke="black" d="M427.83,-1492.46C459.326,-1481.55 501.506,-1466.93 534.24,-1455.59"/>
<polygon fill="black" stroke="black" points="535.77,-1458.76 544.073,-1452.18 533.478,-1452.15 535.77,-1458.76"/>
</g>
<!-- fMRI_pipeline_preprocessing_stage_inputnode -->
<g id="node5" class="node"><title>fMRI_pipeline_preprocessing_stage_inputnode</title>
<ellipse fill="#e6e6ff" stroke="black" cx="177" cy="-1362" rx="75.2868" ry="18"/>
<text text-anchor="middle" x="177" y="-1358.3" font-family="Times,serif" font-size="14.00">inputnode (utility)</text>
</g>
<!-- fMRI_pipeline_inputnode&#45;&gt;fMRI_pipeline_preprocessing_stage_inputnode -->
<g id="edge71" class="edge"><title>fMRI_pipeline_inputnode&#45;&gt;fMRI_pipeline_preprocessing_stage_inputnode</title>
<path fill="none" stroke="black" d="M526.544,-1425.54C452.315,-1412.26 324.445,-1389.38 245.654,-1375.28"/>
<polygon fill="black" stroke="black" points="245.808,-1371.76 235.348,-1373.44 244.575,-1378.65 245.808,-1371.76"/>
</g>
<!-- fMRI_pipeline_registration_stage_inputnode -->
<g id="node9" class="node"><title>fMRI_pipeline_registration_stage_inputnode</title>
<ellipse fill="#e6e6ff" stroke="black" cx="585" cy="-1143" rx="75.2868" ry="18"/>
<text text-anchor="middle" x="585" y="-1139.3" font-family="Times,serif" font-size="14.00">inputnode (utility)</text>
</g>
<!-- fMRI_pipeline_inputnode&#45;&gt;fMRI_pipeline_registration_stage_inputnode -->
<g id="edge64" class="edge"><title>fMRI_pipeline_inputnode&#45;&gt;fMRI_pipeline_registration_stage_inputnode</title>
<path fill="none" stroke="black" d="M564.97,-1419.46C539.199,-1370.99 537.762,-1228.98 560.657,-1170.07"/>
<polygon fill="black" stroke="black" points="563.955,-1171.27 564.874,-1160.72 557.573,-1168.39 563.955,-1171.27"/>
</g>
<!-- fMRI_pipeline_inputnode&#45;&gt;fMRI_pipeline_registration_stage_inputnode -->
<g id="edge65" class="edge"><title>fMRI_pipeline_inputnode&#45;&gt;fMRI_pipeline_registration_stage_inputnode</title>
<path fill="none" stroke="black" d="M571.497,-1419.04C554.525,-1370.35 553.559,-1229.88 568.599,-1170.74"/>
<polygon fill="black" stroke="black" points="571.998,-1171.59 571.481,-1161.01 565.286,-1169.6 571.998,-1171.59"/>
</g>
<!-- fMRI_pipeline_inputnode&#45;&gt;fMRI_pipeline_registration_stage_inputnode -->
<g id="edge66" class="edge"><title>fMRI_pipeline_inputnode&#45;&gt;fMRI_pipeline_registration_stage_inputnode</title>
<path fill="none" stroke="black" d="M578.249,-1419.04C569.78,-1370.45 569.282,-1230.46 576.753,-1171.11"/>
<polygon fill="black" stroke="black" points="580.246,-1171.41 578.24,-1161.01 573.321,-1170.39 580.246,-1171.41"/>
</g>
<!-- fMRI_pipeline_inputnode&#45;&gt;fMRI_pipeline_registration_stage_inputnode -->
<g id="edge67" class="edge"><title>fMRI_pipeline_inputnode&#45;&gt;fMRI_pipeline_registration_stage_inputnode</title>
<path fill="none" stroke="black" d="M585,-1418.61C585,-1369.72 585,-1230.76 585,-1171.42"/>
<polygon fill="black" stroke="black" points="588.5,-1171.3 585,-1161.3 581.5,-1171.3 588.5,-1171.3"/>
</g>
<!-- fMRI_pipeline_inputnode&#45;&gt;fMRI_pipeline_registration_stage_inputnode -->
<g id="edge68" class="edge"><title>fMRI_pipeline_inputnode&#45;&gt;fMRI_pipeline_registration_stage_inputnode</title>
<path fill="none" stroke="black" d="M591.751,-1419.04C600.22,-1370.45 600.718,-1230.46 593.247,-1171.11"/>
<polygon fill="black" stroke="black" points="596.679,-1170.39 591.76,-1161.01 589.754,-1171.41 596.679,-1170.39"/>
</g>
<!-- fMRI_pipeline_inputnode&#45;&gt;fMRI_pipeline_registration_stage_inputnode -->
<g id="edge69" class="edge"><title>fMRI_pipeline_inputnode&#45;&gt;fMRI_pipeline_registration_stage_inputnode</title>
<path fill="none" stroke="black" d="M598.503,-1419.04C615.475,-1370.35 616.441,-1229.88 601.401,-1170.74"/>
<polygon fill="black" stroke="black" points="604.714,-1169.6 598.519,-1161.01 598.002,-1171.59 604.714,-1169.6"/>
</g>
<!-- fMRI_pipeline_inputnode&#45;&gt;fMRI_pipeline_registration_stage_inputnode -->
<g id="edge70" class="edge"><title>fMRI_pipeline_inputnode&#45;&gt;fMRI_pipeline_registration_stage_inputnode</title>
<path fill="none" stroke="black" d="M605.03,-1419.46C630.801,-1370.99 632.238,-1228.98 609.343,-1170.07"/>
<polygon fill="black" stroke="black" points="612.427,-1168.39 605.126,-1160.72 606.045,-1171.27 612.427,-1168.39"/>
</g>
<!-- fMRI_pipeline_connectome_stage_inputnode -->
<g id="node24" class="node"><title>fMRI_pipeline_connectome_stage_inputnode</title>
<ellipse fill="#e6e6ff" stroke="black" cx="214" cy="-257" rx="75.2868" ry="18"/>
<text text-anchor="middle" x="214" y="-253.3" font-family="Times,serif" font-size="14.00">inputnode (utility)</text>
</g>
<!-- fMRI_pipeline_inputnode&#45;&gt;fMRI_pipeline_connectome_stage_inputnode -->
<g id="edge72" class="edge"><title>fMRI_pipeline_inputnode&#45;&gt;fMRI_pipeline_connectome_stage_inputnode</title>
<path fill="none" stroke="black" d="M632.321,-1422.89C639.647,-1419.68 646.821,-1415.76 653,-1411 704.582,-1371.28 737,-1356.1 737,-1291 737,-1291 737,-1291 737,-411 737,-343.795 682.458,-341.194 621,-314 564.325,-288.922 397.043,-272.086 295.439,-263.858"/>
<polygon fill="black" stroke="black" points="295.458,-260.349 285.211,-263.041 294.9,-267.327 295.458,-260.349"/>
</g>
<!-- fMRI_pipeline_outputnode -->
<g id="node4" class="node"><title>fMRI_pipeline_outputnode</title>
<ellipse fill="#ffffc8" stroke="black" cx="214" cy="-41" rx="79.0865" ry="18"/>
<text text-anchor="middle" x="214" y="-37.3" font-family="Times,serif" font-size="14.00">outputnode (utility)</text>
</g>
<!-- fMRI_pipeline_preprocessing_stage_slice_timing -->
<g id="node6" class="node"><title>fMRI_pipeline_preprocessing_stage_slice_timing</title>
<ellipse fill="#e6e6ff" stroke="black" cx="172" cy="-1290" rx="71.4873" ry="18"/>
<text text-anchor="middle" x="172" y="-1286.3" font-family="Times,serif" font-size="14.00">slice_timing (fsl)</text>
</g>
<!-- fMRI_pipeline_preprocessing_stage_inputnode&#45;&gt;fMRI_pipeline_preprocessing_stage_slice_timing -->
<g id="edge15" class="edge"><title>fMRI_pipeline_preprocessing_stage_inputnode&#45;&gt;fMRI_pipeline_preprocessing_stage_slice_timing</title>
<path fill="none" stroke="#0000ff" d="M175.764,-1343.7C175.213,-1335.98 174.551,-1326.71 173.937,-1318.11"/>
<polygon fill="#0000ff" stroke="#0000ff" points="177.425,-1317.83 173.222,-1308.1 170.443,-1318.33 177.425,-1317.83"/>
</g>
<!-- fMRI_pipeline_preprocessing_stage_motion_correction -->
<g id="node7" class="node"><title>fMRI_pipeline_preprocessing_stage_motion_correction</title>
<ellipse fill="#e6e6ff" stroke="black" cx="163" cy="-1218" rx="92.8835" ry="18"/>
<text text-anchor="middle" x="163" y="-1214.3" font-family="Times,serif" font-size="14.00">motion_correction (fsl)</text>
</g>
<!-- fMRI_pipeline_preprocessing_stage_slice_timing&#45;&gt;fMRI_pipeline_preprocessing_stage_motion_correction -->
<g id="edge16" class="edge"><title>fMRI_pipeline_preprocessing_stage_slice_timing&#45;&gt;fMRI_pipeline_preprocessing_stage_motion_correction</title>
<path fill="none" stroke="#0000ff" d="M169.775,-1271.7C168.783,-1263.98 167.592,-1254.71 166.486,-1246.11"/>
<polygon fill="#0000ff" stroke="#0000ff" points="169.946,-1245.58 165.199,-1236.1 163.003,-1246.47 169.946,-1245.58"/>
</g>
<!-- fMRI_pipeline_preprocessing_stage_outputnode -->
<g id="node8" class="node"><title>fMRI_pipeline_preprocessing_stage_outputnode</title>
<ellipse fill="#e6e6ff" stroke="black" cx="163" cy="-1143" rx="79.0865" ry="18"/>
<text text-anchor="middle" x="163" y="-1139.3" font-family="Times,serif" font-size="14.00">outputnode (utility)</text>
</g>
<!-- fMRI_pipeline_preprocessing_stage_motion_correction&#45;&gt;fMRI_pipeline_preprocessing_stage_outputnode -->
<g id="edge17" class="edge"><title>fMRI_pipeline_preprocessing_stage_motion_correction&#45;&gt;fMRI_pipeline_preprocessing_stage_outputnode</title>
<path fill="none" stroke="#0000ff" d="M151.398,-1200.07C149.535,-1191.41 149.043,-1180.66 149.924,-1170.9"/>
<polygon fill="#0000ff" stroke="#0000ff" points="153.411,-1171.25 151.418,-1160.84 146.487,-1170.22 153.411,-1171.25"/>
</g>
<!-- fMRI_pipeline_preprocessing_stage_motion_correction&#45;&gt;fMRI_pipeline_preprocessing_stage_outputnode -->
<g id="edge18" class="edge"><title>fMRI_pipeline_preprocessing_stage_motion_correction&#45;&gt;fMRI_pipeline_preprocessing_stage_outputnode</title>
<path fill="none" stroke="#0000ff" d="M163,-1199.7C163,-1191.25 163,-1180.87 163,-1171.37"/>
<polygon fill="#0000ff" stroke="#0000ff" points="166.5,-1171.18 163,-1161.18 159.5,-1171.18 166.5,-1171.18"/>
</g>
<!-- fMRI_pipeline_preprocessing_stage_motion_correction&#45;&gt;fMRI_pipeline_preprocessing_stage_outputnode -->
<g id="edge19" class="edge"><title>fMRI_pipeline_preprocessing_stage_motion_correction&#45;&gt;fMRI_pipeline_preprocessing_stage_outputnode</title>
<path fill="none" stroke="#0000ff" d="M174.602,-1200.07C176.465,-1191.41 176.957,-1180.66 176.076,-1170.9"/>
<polygon fill="#0000ff" stroke="#0000ff" points="179.513,-1170.22 174.582,-1160.84 172.589,-1171.25 179.513,-1170.22"/>
</g>
<!-- fMRI_pipeline_preprocessing_stage_outputnode&#45;&gt;fMRI_pipeline_registration_stage_inputnode -->
<g id="edge54" class="edge"><title>fMRI_pipeline_preprocessing_stage_outputnode&#45;&gt;fMRI_pipeline_registration_stage_inputnode</title>
<path fill="none" stroke="black" d="M201.329,-1158.89C234.664,-1171.79 284.61,-1188.97 330,-1196 347.678,-1198.74 473.501,-1199.71 491,-1196 514.097,-1191.1 537.235,-1178.18 554.776,-1166.32"/>
<polygon fill="black" stroke="black" points="557.231,-1168.87 563.408,-1160.27 553.211,-1163.14 557.231,-1168.87"/>
</g>
<!-- fMRI_pipeline_functional_stage_inputnode -->
<g id="node13" class="node"><title>fMRI_pipeline_functional_stage_inputnode</title>
<ellipse fill="#e6e6ff" stroke="black" cx="92" cy="-1060" rx="75.2868" ry="18"/>
<text text-anchor="middle" x="92" y="-1056.3" font-family="Times,serif" font-size="14.00">inputnode (utility)</text>
</g>
<!-- fMRI_pipeline_preprocessing_stage_outputnode&#45;&gt;fMRI_pipeline_functional_stage_inputnode -->
<g id="edge55" class="edge"><title>fMRI_pipeline_preprocessing_stage_outputnode&#45;&gt;fMRI_pipeline_functional_stage_inputnode</title>
<path fill="none" stroke="black" d="M142.696,-1125.22C131.509,-1113.89 117.997,-1098.74 107.624,-1086"/>
<polygon fill="black" stroke="black" points="110.27,-1083.7 101.316,-1078.04 104.784,-1088.05 110.27,-1083.7"/>
</g>
<!-- fMRI_pipeline_preprocessing_stage_outputnode&#45;&gt;fMRI_pipeline_functional_stage_inputnode -->
<g id="edge56" class="edge"><title>fMRI_pipeline_preprocessing_stage_outputnode&#45;&gt;fMRI_pipeline_functional_stage_inputnode</title>
<path fill="none" stroke="black" d="M153.579,-1124.82C144.713,-1113.28 131.443,-1097.92 119.406,-1085.15"/>
<polygon fill="black" stroke="black" points="121.583,-1082.37 112.122,-1077.6 116.544,-1087.23 121.583,-1082.37"/>
</g>
<!-- fMRI_pipeline_registration_stage_fMRI_skullstrip -->
<g id="node10" class="node"><title>fMRI_pipeline_registration_stage_fMRI_skullstrip</title>
<ellipse fill="#e6e6ff" stroke="black" cx="418" cy="-1060" rx="85.2851" ry="18"/>
<text text-anchor="middle" x="418" y="-1056.3" font-family="Times,serif" font-size="14.00">fMRI_skullstrip (fsl)</text>
</g>
<!-- fMRI_pipeline_registration_stage_inputnode&#45;&gt;fMRI_pipeline_registration_stage_fMRI_skullstrip -->
<g id="edge21" class="edge"><title>fMRI_pipeline_registration_stage_inputnode&#45;&gt;fMRI_pipeline_registration_stage_fMRI_skullstrip</title>
<path fill="none" stroke="#0000ff" d="M550.677,-1126.89C538.414,-1121.38 524.534,-1115.03 512,-1109 493.887,-1100.29 474.039,-1090.23 457.268,-1081.58"/>
<polygon fill="#0000ff" stroke="#0000ff" points="458.787,-1078.42 448.298,-1076.93 455.569,-1084.64 458.787,-1078.42"/>
</g>
<!-- fMRI_pipeline_registration_stage_T1_skullstrip -->
<g id="node12" class="node"><title>fMRI_pipeline_registration_stage_T1_skullstrip</title>
<ellipse fill="#e6e6ff" stroke="black" cx="596" cy="-1060" rx="74.9875" ry="18"/>
<text text-anchor="middle" x="596" y="-1056.3" font-family="Times,serif" font-size="14.00">T1_skullstrip (fsl)</text>
</g>
<!-- fMRI_pipeline_registration_stage_inputnode&#45;&gt;fMRI_pipeline_registration_stage_T1_skullstrip -->
<g id="edge20" class="edge"><title>fMRI_pipeline_registration_stage_inputnode&#45;&gt;fMRI_pipeline_registration_stage_T1_skullstrip</title>
<path fill="none" stroke="#0000ff" d="M587.333,-1124.82C588.777,-1114.19 590.662,-1100.31 592.306,-1088.2"/>
<polygon fill="#0000ff" stroke="#0000ff" points="595.793,-1088.53 593.671,-1078.15 588.857,-1087.59 595.793,-1088.53"/>
</g>
<!-- fMRI_pipeline_registration_stage_outputnode -->
<g id="node11" class="node"><title>fMRI_pipeline_registration_stage_outputnode</title>
<ellipse fill="#e6e6ff" stroke="black" cx="412" cy="-1143" rx="79.0865" ry="18"/>
<text text-anchor="middle" x="412" y="-1139.3" font-family="Times,serif" font-size="14.00">outputnode (utility)</text>
</g>
<!-- fMRI_pipeline_registration_stage_outputnode&#45;&gt;fMRI_pipeline_functional_stage_inputnode -->
<g id="edge59" class="edge"><title>fMRI_pipeline_registration_stage_outputnode&#45;&gt;fMRI_pipeline_functional_stage_inputnode</title>
<path fill="none" stroke="black" d="M351.241,-1131.41C288.96,-1118 195.66,-1094.7 138.812,-1078.6"/>
<polygon fill="black" stroke="black" points="139.558,-1075.17 128.981,-1075.78 137.629,-1081.9 139.558,-1075.17"/>
</g>
<!-- fMRI_pipeline_registration_stage_outputnode&#45;&gt;fMRI_pipeline_functional_stage_inputnode -->
<g id="edge60" class="edge"><title>fMRI_pipeline_registration_stage_outputnode&#45;&gt;fMRI_pipeline_functional_stage_inputnode</title>
<path fill="none" stroke="black" d="M355.613,-1130.22C296.148,-1116.29 203.748,-1093 145.427,-1077.33"/>
<polygon fill="black" stroke="black" points="146.227,-1073.92 135.66,-1074.69 144.4,-1080.68 146.227,-1073.92"/>
</g>
<!-- fMRI_pipeline_registration_stage_outputnode&#45;&gt;fMRI_pipeline_functional_stage_inputnode -->
<g id="edge61" class="edge"><title>fMRI_pipeline_registration_stage_outputnode&#45;&gt;fMRI_pipeline_functional_stage_inputnode</title>
<path fill="none" stroke="black" d="M360.941,-1129.08C303.943,-1114.65 211.819,-1091.33 151.577,-1076.08"/>
<polygon fill="black" stroke="black" points="152.377,-1072.67 141.824,-1073.61 150.659,-1079.46 152.377,-1072.67"/>
</g>
<!-- fMRI_pipeline_registration_stage_outputnode&#45;&gt;fMRI_pipeline_functional_stage_inputnode -->
<g id="edge62" class="edge"><title>fMRI_pipeline_registration_stage_outputnode&#45;&gt;fMRI_pipeline_functional_stage_inputnode</title>
<path fill="none" stroke="black" d="M367.474,-1128.08C312.487,-1113.13 219.304,-1089.55 156.54,-1074.7"/>
<polygon fill="black" stroke="black" points="157.274,-1071.28 146.738,-1072.39 155.67,-1078.09 157.274,-1071.28"/>
</g>
<!-- fMRI_pipeline_registration_stage_outputnode&#45;&gt;fMRI_pipeline_functional_stage_inputnode -->
<g id="edge63" class="edge"><title>fMRI_pipeline_registration_stage_outputnode&#45;&gt;fMRI_pipeline_functional_stage_inputnode</title>
<path fill="none" stroke="black" d="M374.438,-1127.05C321.231,-1111.61 226.721,-1087.81 161.036,-1073.39"/>
<polygon fill="black" stroke="black" points="161.672,-1069.95 151.157,-1071.25 160.187,-1076.79 161.672,-1069.95"/>
</g>
<!-- fMRI_pipeline_registration_stage_outputnode&#45;&gt;fMRI_pipeline_connectome_stage_inputnode -->
<g id="edge58" class="edge"><title>fMRI_pipeline_registration_stage_outputnode&#45;&gt;fMRI_pipeline_connectome_stage_inputnode</title>
<path fill="none" stroke="black" d="M455.013,-1127.77C469.469,-1123.57 485.788,-1119.44 501,-1117 520.657,-1113.84 665.154,-1122.26 680,-1109 720.266,-1073.02 699,-1043 699,-989 699,-989 699,-989 699,-411 699,-326.64 428.759,-282.971 291.724,-266.25"/>
<polygon fill="black" stroke="black" points="292.038,-262.763 281.692,-265.045 291.204,-269.713 292.038,-262.763"/>
</g>
<!-- fMRI_pipeline_functional_stage_smoothing_output -->
<g id="node14" class="node"><title>fMRI_pipeline_functional_stage_smoothing_output</title>
<ellipse fill="#e6e6ff" stroke="black" cx="204" cy="-988" rx="104.782" ry="18"/>
<text text-anchor="middle" x="204" y="-984.3" font-family="Times,serif" font-size="14.00">smoothing_output (utility)</text>
</g>
<!-- fMRI_pipeline_functional_stage_inputnode&#45;&gt;fMRI_pipeline_functional_stage_smoothing_output -->
<g id="edge25" class="edge"><title>fMRI_pipeline_functional_stage_inputnode&#45;&gt;fMRI_pipeline_functional_stage_smoothing_output</title>
<path fill="none" stroke="#0000ff" d="M117.695,-1042.94C132.844,-1033.47 152.226,-1021.36 168.784,-1011.01"/>
<polygon fill="#0000ff" stroke="#0000ff" points="171.022,-1013.74 177.647,-1005.47 167.312,-1007.8 171.022,-1013.74"/>
</g>
<!-- fMRI_pipeline_functional_stage_nuisance_regression -->
<g id="node16" class="node"><title>fMRI_pipeline_functional_stage_nuisance_regression</title>
<ellipse fill="#e6e6ff" stroke="black" cx="183" cy="-844" rx="126.178" ry="18"/>
<text text-anchor="middle" x="183" y="-840.3" font-family="Times,serif" font-size="14.00">nuisance_regression (functional)</text>
</g>
<!-- fMRI_pipeline_functional_stage_inputnode&#45;&gt;fMRI_pipeline_functional_stage_nuisance_regression -->
<g id="edge26" class="edge"><title>fMRI_pipeline_functional_stage_inputnode&#45;&gt;fMRI_pipeline_functional_stage_nuisance_regression</title>
<path fill="none" stroke="#0000ff" d="M66.8806,-1042.89C43.7673,-1012.1 31.6384,-943.909 60,-898 69.4196,-882.753 85.0141,-871.272 102.652,-862.964"/>
<polygon fill="#0000ff" stroke="#0000ff" points="104.249,-866.087 112.039,-858.907 101.472,-859.662 104.249,-866.087"/>
</g>
<!-- fMRI_pipeline_functional_stage_inputnode&#45;&gt;fMRI_pipeline_functional_stage_nuisance_regression -->
<g id="edge27" class="edge"><title>fMRI_pipeline_functional_stage_inputnode&#45;&gt;fMRI_pipeline_functional_stage_nuisance_regression</title>
<path fill="none" stroke="#0000ff" d="M76.69,-1041.92C61.5203,-1010.69 49.9323,-943.433 78,-898 86.7806,-883.787 100.927,-872.847 116.187,-864.699"/>
<polygon fill="#0000ff" stroke="#0000ff" points="117.848,-867.783 125.269,-860.221 114.752,-861.504 117.848,-867.783"/>
</g>
<!-- fMRI_pipeline_functional_stage_inputnode&#45;&gt;fMRI_pipeline_functional_stage_nuisance_regression -->
<g id="edge28" class="edge"><title>fMRI_pipeline_functional_stage_inputnode&#45;&gt;fMRI_pipeline_functional_stage_nuisance_regression</title>
<path fill="none" stroke="#0000ff" d="M87.2142,-1041.92C79.5203,-1010.69 67.9323,-943.433 96,-898 104.311,-884.546 117.43,-874.025 130.984,-866.029"/>
<polygon fill="#0000ff" stroke="#0000ff" points="132.824,-869.012 139.908,-861.134 129.457,-862.875 132.824,-869.012"/>
</g>
<!-- fMRI_pipeline_functional_stage_inputnode&#45;&gt;fMRI_pipeline_functional_stage_nuisance_regression -->
<g id="edge29" class="edge"><title>fMRI_pipeline_functional_stage_inputnode&#45;&gt;fMRI_pipeline_functional_stage_nuisance_regression</title>
<path fill="none" stroke="#0000ff" d="M97.7385,-1041.92C97.5203,-1010.69 85.9323,-943.433 114,-898 122.004,-885.045 134.465,-874.809 146.795,-866.928"/>
<polygon fill="#0000ff" stroke="#0000ff" points="148.906,-869.744 155.685,-861.601 145.308,-863.739 148.906,-869.744"/>
</g>
<!-- fMRI_pipeline_functional_stage_inputnode&#45;&gt;fMRI_pipeline_functional_stage_nuisance_regression -->
<g id="edge30" class="edge"><title>fMRI_pipeline_functional_stage_inputnode&#45;&gt;fMRI_pipeline_functional_stage_nuisance_regression</title>
<path fill="none" stroke="#0000ff" d="M108.147,-1042.41C115.643,-1011.4 103.785,-943.671 132,-898 139.778,-885.41 151.765,-875.389 163.123,-867.601"/>
<polygon fill="#0000ff" stroke="#0000ff" points="165.136,-870.467 171.605,-862.076 161.315,-864.601 165.136,-870.467"/>
</g>
<!-- fMRI_pipeline_functional_stage_detrending -->
<g id="node18" class="node"><title>fMRI_pipeline_functional_stage_detrending</title>
<ellipse fill="#e6e6ff" stroke="black" cx="155" cy="-700" rx="92.0841" ry="18"/>
<text text-anchor="middle" x="155" y="-696.3" font-family="Times,serif" font-size="14.00">detrending (functional)</text>
</g>
<!-- fMRI_pipeline_functional_stage_inputnode&#45;&gt;fMRI_pipeline_functional_stage_detrending -->
<g id="edge31" class="edge"><title>fMRI_pipeline_functional_stage_inputnode&#45;&gt;fMRI_pipeline_functional_stage_detrending</title>
<path fill="none" stroke="#0000ff" d="M80.8112,-1041.87C64.9942,-1015.96 38,-964.739 38,-917 38,-917 38,-917 38,-843 38,-802.031 36.9429,-786.412 62,-754 72.9266,-739.866 88.7612,-728.873 104.277,-720.656"/>
<polygon fill="#0000ff" stroke="#0000ff" points="105.951,-723.732 113.336,-716.136 102.825,-717.469 105.951,-723.732"/>
</g>
<!-- fMRI_pipeline_functional_stage_scrubbing -->
<g id="node22" class="node"><title>fMRI_pipeline_functional_stage_scrubbing</title>
<ellipse fill="#e6e6ff" stroke="black" cx="106" cy="-412" rx="89.0842" ry="18"/>
<text text-anchor="middle" x="106" y="-408.3" font-family="Times,serif" font-size="14.00">scrubbing (functional)</text>
</g>
<!-- fMRI_pipeline_functional_stage_inputnode&#45;&gt;fMRI_pipeline_functional_stage_scrubbing -->
<g id="edge22" class="edge"><title>fMRI_pipeline_functional_stage_inputnode&#45;&gt;fMRI_pipeline_functional_stage_scrubbing</title>
<path fill="none" stroke="#0000ff" d="M59.6469,-1043.71C47.1732,-1033.82 34.925,-1020.17 27,-1006 6.82055,-969.925 0,-958.336 0,-917 0,-917 0,-917 0,-555 0,-506.944 36.8649,-461.609 67.7544,-435.604"/>
<polygon fill="#0000ff" stroke="#0000ff" points="70.2466,-438.092 75.8617,-429.108 65.8693,-432.63 70.2466,-438.092"/>
</g>
<!-- fMRI_pipeline_functional_stage_inputnode&#45;&gt;fMRI_pipeline_functional_stage_scrubbing -->
<g id="edge23" class="edge"><title>fMRI_pipeline_functional_stage_inputnode&#45;&gt;fMRI_pipeline_functional_stage_scrubbing</title>
<path fill="none" stroke="#0000ff" d="M73.8015,-1042.34C64.0687,-1032.57 52.5648,-1019.52 45,-1006 24.8205,-969.925 18,-958.336 18,-917 18,-917 18,-917 18,-555 18,-507.749 53.6402,-463.129 79.558,-436.927"/>
<polygon fill="#0000ff" stroke="#0000ff" points="82.2163,-439.222 86.9053,-429.722 77.315,-434.225 82.2163,-439.222"/>
</g>
<!-- fMRI_pipeline_functional_stage_inputnode&#45;&gt;fMRI_pipeline_functional_stage_scrubbing -->
<g id="edge24" class="edge"><title>fMRI_pipeline_functional_stage_inputnode&#45;&gt;fMRI_pipeline_functional_stage_scrubbing</title>
<path fill="none" stroke="#0000ff" d="M89.2912,-1041.87C81.7045,-1032.16 70.4447,-1019.31 63,-1006 42.8205,-969.925 36,-958.336 36,-917 36,-917 36,-917 36,-555 36,-508.416 70.6407,-464.389 92.0086,-438.048"/>
<polygon fill="#0000ff" stroke="#0000ff" points="94.8431,-440.11 98.4192,-430.137 89.4043,-435.703 94.8431,-440.11"/>
</g>
<!-- fMRI_pipeline_functional_stage_discard_output -->
<g id="node15" class="node"><title>fMRI_pipeline_functional_stage_discard_output</title>
<ellipse fill="#e6e6ff" stroke="black" cx="197" cy="-916" rx="92.0841" ry="18"/>
<text text-anchor="middle" x="197" y="-912.3" font-family="Times,serif" font-size="14.00">discard_output (utility)</text>
</g>
<!-- fMRI_pipeline_functional_stage_smoothing_output&#45;&gt;fMRI_pipeline_functional_stage_discard_output -->
<g id="edge32" class="edge"><title>fMRI_pipeline_functional_stage_smoothing_output&#45;&gt;fMRI_pipeline_functional_stage_discard_output</title>
<path fill="none" stroke="#0000ff" d="M202.27,-969.697C201.498,-961.983 200.571,-952.712 199.711,-944.112"/>
<polygon fill="#0000ff" stroke="#0000ff" points="203.188,-943.706 198.71,-934.104 196.223,-944.403 203.188,-943.706"/>
</g>
<!-- fMRI_pipeline_functional_stage_discard_output&#45;&gt;fMRI_pipeline_functional_stage_nuisance_regression -->
<g id="edge33" class="edge"><title>fMRI_pipeline_functional_stage_discard_output&#45;&gt;fMRI_pipeline_functional_stage_nuisance_regression</title>
<path fill="none" stroke="#0000ff" d="M193.539,-897.697C191.997,-889.983 190.142,-880.712 188.422,-872.112"/>
<polygon fill="#0000ff" stroke="#0000ff" points="191.814,-871.224 186.421,-862.104 184.95,-872.597 191.814,-871.224"/>
</g>
<!-- fMRI_pipeline_functional_stage_nuisance_output -->
<g id="node17" class="node"><title>fMRI_pipeline_functional_stage_nuisance_output</title>
<ellipse fill="#e6e6ff" stroke="black" cx="168" cy="-772" rx="97.4827" ry="18"/>
<text text-anchor="middle" x="168" y="-768.3" font-family="Times,serif" font-size="14.00">nuisance_output (utility)</text>
</g>
<!-- fMRI_pipeline_functional_stage_nuisance_regression&#45;&gt;fMRI_pipeline_functional_stage_nuisance_output -->
<g id="edge34" class="edge"><title>fMRI_pipeline_functional_stage_nuisance_regression&#45;&gt;fMRI_pipeline_functional_stage_nuisance_output</title>
<path fill="none" stroke="#0000ff" d="M179.292,-825.697C177.639,-817.983 175.653,-808.712 173.81,-800.112"/>
<polygon fill="#0000ff" stroke="#0000ff" points="177.183,-799.149 171.665,-790.104 170.338,-800.616 177.183,-799.149"/>
</g>
<!-- fMRI_pipeline_functional_stage_nuisance_output&#45;&gt;fMRI_pipeline_functional_stage_detrending -->
<g id="edge35" class="edge"><title>fMRI_pipeline_functional_stage_nuisance_output&#45;&gt;fMRI_pipeline_functional_stage_detrending</title>
<path fill="none" stroke="#0000ff" d="M164.787,-753.697C163.354,-745.983 161.632,-736.712 160.035,-728.112"/>
<polygon fill="#0000ff" stroke="#0000ff" points="163.444,-727.297 158.177,-718.104 156.561,-728.575 163.444,-727.297"/>
</g>
<!-- fMRI_pipeline_functional_stage_detrending_output -->
<g id="node19" class="node"><title>fMRI_pipeline_functional_stage_detrending_output</title>
<ellipse fill="#e6e6ff" stroke="black" cx="155" cy="-628" rx="104.782" ry="18"/>
<text text-anchor="middle" x="155" y="-624.3" font-family="Times,serif" font-size="14.00">detrending_output (utility)</text>
</g>
<!-- fMRI_pipeline_functional_stage_detrending&#45;&gt;fMRI_pipeline_functional_stage_detrending_output -->
<g id="edge36" class="edge"><title>fMRI_pipeline_functional_stage_detrending&#45;&gt;fMRI_pipeline_functional_stage_detrending_output</title>
<path fill="none" stroke="#0000ff" d="M155,-681.697C155,-673.983 155,-664.712 155,-656.112"/>
<polygon fill="#0000ff" stroke="#0000ff" points="158.5,-656.104 155,-646.104 151.5,-656.104 158.5,-656.104"/>
</g>
<!-- fMRI_pipeline_functional_stage_temporal_filter -->
<g id="node20" class="node"><title>fMRI_pipeline_functional_stage_temporal_filter</title>
<ellipse fill="#e6e6ff" stroke="black" cx="155" cy="-556" rx="81.4863" ry="18"/>
<text text-anchor="middle" x="155" y="-552.3" font-family="Times,serif" font-size="14.00">temporal_filter (fsl)</text>
</g>
<!-- fMRI_pipeline_functional_stage_detrending_output&#45;&gt;fMRI_pipeline_functional_stage_temporal_filter -->
<g id="edge37" class="edge"><title>fMRI_pipeline_functional_stage_detrending_output&#45;&gt;fMRI_pipeline_functional_stage_temporal_filter</title>
<path fill="none" stroke="#0000ff" d="M155,-609.697C155,-601.983 155,-592.712 155,-584.112"/>
<polygon fill="#0000ff" stroke="#0000ff" points="158.5,-584.104 155,-574.104 151.5,-584.104 158.5,-584.104"/>
</g>
<!-- fMRI_pipeline_functional_stage_filter_output -->
<g id="node21" class="node"><title>fMRI_pipeline_functional_stage_filter_output</title>
<ellipse fill="#e6e6ff" stroke="black" cx="155" cy="-484" rx="83.6854" ry="18"/>
<text text-anchor="middle" x="155" y="-480.3" font-family="Times,serif" font-size="14.00">filter_output (utility)</text>
</g>
<!-- fMRI_pipeline_functional_stage_temporal_filter&#45;&gt;fMRI_pipeline_functional_stage_filter_output -->
<g id="edge38" class="edge"><title>fMRI_pipeline_functional_stage_temporal_filter&#45;&gt;fMRI_pipeline_functional_stage_filter_output</title>
<path fill="none" stroke="#0000ff" d="M155,-537.697C155,-529.983 155,-520.712 155,-512.112"/>
<polygon fill="#0000ff" stroke="#0000ff" points="158.5,-512.104 155,-502.104 151.5,-512.104 158.5,-512.104"/>
</g>
<!-- fMRI_pipeline_functional_stage_filter_output&#45;&gt;fMRI_pipeline_functional_stage_scrubbing -->
<g id="edge40" class="edge"><title>fMRI_pipeline_functional_stage_filter_output&#45;&gt;fMRI_pipeline_functional_stage_scrubbing</title>
<path fill="none" stroke="#0000ff" d="M143.138,-466.055C137.386,-457.837 130.354,-447.791 123.962,-438.66"/>
<polygon fill="#0000ff" stroke="#0000ff" points="126.695,-436.461 118.093,-430.275 120.96,-440.475 126.695,-436.461"/>
</g>
<!-- fMRI_pipeline_functional_stage_outputnode -->
<g id="node23" class="node"><title>fMRI_pipeline_functional_stage_outputnode</title>
<ellipse fill="#e6e6ff" stroke="black" cx="214" cy="-340" rx="79.0865" ry="18"/>
<text text-anchor="middle" x="214" y="-336.3" font-family="Times,serif" font-size="14.00">outputnode (utility)</text>
</g>
<!-- fMRI_pipeline_functional_stage_filter_output&#45;&gt;fMRI_pipeline_functional_stage_outputnode -->
<g id="edge39" class="edge"><title>fMRI_pipeline_functional_stage_filter_output&#45;&gt;fMRI_pipeline_functional_stage_outputnode</title>
<path fill="none" stroke="#0000ff" d="M175.492,-466.529C185.837,-457.007 197.536,-444.13 204,-430 212.826,-410.706 215.084,-386.695 215.269,-368.476"/>
<polygon fill="#0000ff" stroke="#0000ff" points="218.766,-368.201 215.164,-358.237 211.767,-368.273 218.766,-368.201"/>
</g>
<!-- fMRI_pipeline_functional_stage_scrubbing&#45;&gt;fMRI_pipeline_functional_stage_outputnode -->
<g id="edge41" class="edge"><title>fMRI_pipeline_functional_stage_scrubbing&#45;&gt;fMRI_pipeline_functional_stage_outputnode</title>
<path fill="none" stroke="#0000ff" d="M125.755,-394.411C139.674,-384.702 158.596,-372.351 175.4,-361.972"/>
<polygon fill="#0000ff" stroke="#0000ff" points="177.245,-364.947 183.957,-356.749 173.598,-358.972 177.245,-364.947"/>
</g>
<!-- fMRI_pipeline_functional_stage_scrubbing&#45;&gt;fMRI_pipeline_functional_stage_outputnode -->
<g id="edge42" class="edge"><title>fMRI_pipeline_functional_stage_scrubbing&#45;&gt;fMRI_pipeline_functional_stage_outputnode</title>
<path fill="none" stroke="#0000ff" d="M136.558,-394.941C152.098,-385.56 170.763,-373.583 185.936,-363.298"/>
<polygon fill="#0000ff" stroke="#0000ff" points="188.156,-366.019 194.415,-357.471 184.191,-360.25 188.156,-366.019"/>
</g>
<!-- fMRI_pipeline_functional_stage_outputnode&#45;&gt;fMRI_pipeline_connectome_stage_inputnode -->
<g id="edge51" class="edge"><title>fMRI_pipeline_functional_stage_outputnode&#45;&gt;fMRI_pipeline_connectome_stage_inputnode</title>
<path fill="none" stroke="black" d="M202.728,-321.822C200.413,-311.118 199.902,-297.118 201.194,-284.958"/>
<polygon fill="black" stroke="black" points="204.684,-285.3 202.794,-274.876 197.77,-284.203 204.684,-285.3"/>
</g>
<!-- fMRI_pipeline_functional_stage_outputnode&#45;&gt;fMRI_pipeline_connectome_stage_inputnode -->
<g id="edge52" class="edge"><title>fMRI_pipeline_functional_stage_outputnode&#45;&gt;fMRI_pipeline_connectome_stage_inputnode</title>
<path fill="none" stroke="black" d="M214,-321.822C214,-311.19 214,-297.306 214,-285.204"/>
<polygon fill="black" stroke="black" points="217.5,-285.153 214,-275.153 210.5,-285.153 217.5,-285.153"/>
</g>
<!-- fMRI_pipeline_functional_stage_outputnode&#45;&gt;fMRI_pipeline_connectome_stage_inputnode -->
<g id="edge53" class="edge"><title>fMRI_pipeline_functional_stage_outputnode&#45;&gt;fMRI_pipeline_connectome_stage_inputnode</title>
<path fill="none" stroke="black" d="M225.272,-321.822C227.587,-311.118 228.098,-297.118 226.806,-284.958"/>
<polygon fill="black" stroke="black" points="230.23,-284.203 225.206,-274.876 223.316,-285.3 230.23,-284.203"/>
</g>
<!-- fMRI_pipeline_connectome_stage_compute_matrice -->
<g id="node25" class="node"><title>fMRI_pipeline_connectome_stage_compute_matrice</title>
<ellipse fill="#e6e6ff" stroke="black" cx="214" cy="-185" rx="124.278" ry="18"/>
<text text-anchor="middle" x="214" y="-181.3" font-family="Times,serif" font-size="14.00">compute_matrice (connectome)</text>
</g>
<!-- fMRI_pipeline_connectome_stage_inputnode&#45;&gt;fMRI_pipeline_connectome_stage_compute_matrice -->
<g id="edge43" class="edge"><title>fMRI_pipeline_connectome_stage_inputnode&#45;&gt;fMRI_pipeline_connectome_stage_compute_matrice</title>
<path fill="none" stroke="#0000ff" d="M185.196,-240.116C180.481,-231.94 179.137,-221.756 181.164,-212.436"/>
<polygon fill="#0000ff" stroke="#0000ff" points="184.542,-213.391 184.688,-202.797 177.967,-210.988 184.542,-213.391"/>
</g>
<!-- fMRI_pipeline_connectome_stage_inputnode&#45;&gt;fMRI_pipeline_connectome_stage_compute_matrice -->
<g id="edge44" class="edge"><title>fMRI_pipeline_connectome_stage_inputnode&#45;&gt;fMRI_pipeline_connectome_stage_compute_matrice</title>
<path fill="none" stroke="#0000ff" d="M196.48,-239.411C193.892,-231.507 193.144,-221.852 194.236,-212.935"/>
<polygon fill="#0000ff" stroke="#0000ff" points="197.701,-213.466 196.362,-202.956 190.855,-212.007 197.701,-213.466"/>
</g>
<!-- fMRI_pipeline_connectome_stage_inputnode&#45;&gt;fMRI_pipeline_connectome_stage_compute_matrice -->
<g id="edge45" class="edge"><title>fMRI_pipeline_connectome_stage_inputnode&#45;&gt;fMRI_pipeline_connectome_stage_compute_matrice</title>
<path fill="none" stroke="#0000ff" d="M208.084,-238.697C207.289,-230.983 207.062,-221.712 207.405,-213.112"/>
<polygon fill="#0000ff" stroke="#0000ff" points="210.898,-213.324 208.105,-203.104 203.915,-212.836 210.898,-213.324"/>
</g>
<!-- fMRI_pipeline_connectome_stage_inputnode&#45;&gt;fMRI_pipeline_connectome_stage_compute_matrice -->
<g id="edge46" class="edge"><title>fMRI_pipeline_connectome_stage_inputnode&#45;&gt;fMRI_pipeline_connectome_stage_compute_matrice</title>
<path fill="none" stroke="#0000ff" d="M219.916,-238.697C220.711,-230.983 220.938,-221.712 220.595,-213.112"/>
<polygon fill="#0000ff" stroke="#0000ff" points="224.085,-212.836 219.895,-203.104 217.102,-213.324 224.085,-212.836"/>
</g>
<!-- fMRI_pipeline_connectome_stage_inputnode&#45;&gt;fMRI_pipeline_connectome_stage_compute_matrice -->
<g id="edge47" class="edge"><title>fMRI_pipeline_connectome_stage_inputnode&#45;&gt;fMRI_pipeline_connectome_stage_compute_matrice</title>
<path fill="none" stroke="#0000ff" d="M231.52,-239.411C234.108,-231.507 234.856,-221.852 233.764,-212.935"/>
<polygon fill="#0000ff" stroke="#0000ff" points="237.145,-212.007 231.638,-202.956 230.299,-213.466 237.145,-212.007"/>
</g>
<!-- fMRI_pipeline_connectome_stage_inputnode&#45;&gt;fMRI_pipeline_connectome_stage_compute_matrice -->
<g id="edge48" class="edge"><title>fMRI_pipeline_connectome_stage_inputnode&#45;&gt;fMRI_pipeline_connectome_stage_compute_matrice</title>
<path fill="none" stroke="#0000ff" d="M242.804,-240.116C247.519,-231.94 248.863,-221.756 246.836,-212.436"/>
<polygon fill="#0000ff" stroke="#0000ff" points="250.033,-210.988 243.312,-202.797 243.458,-213.391 250.033,-210.988"/>
</g>
<!-- fMRI_pipeline_connectome_stage_outputnode -->
<g id="node26" class="node"><title>fMRI_pipeline_connectome_stage_outputnode</title>
<ellipse fill="#e6e6ff" stroke="black" cx="214" cy="-113" rx="79.0865" ry="18"/>
<text text-anchor="middle" x="214" y="-109.3" font-family="Times,serif" font-size="14.00">outputnode (utility)</text>
</g>
<!-- fMRI_pipeline_connectome_stage_compute_matrice&#45;&gt;fMRI_pipeline_connectome_stage_outputnode -->
<g id="edge49" class="edge"><title>fMRI_pipeline_connectome_stage_compute_matrice&#45;&gt;fMRI_pipeline_connectome_stage_outputnode</title>
<path fill="none" stroke="#0000ff" d="M208.084,-166.697C207.289,-158.983 207.062,-149.712 207.405,-141.112"/>
<polygon fill="#0000ff" stroke="#0000ff" points="210.898,-141.324 208.105,-131.104 203.915,-140.836 210.898,-141.324"/>
</g>
<!-- fMRI_pipeline_connectome_stage_compute_matrice&#45;&gt;fMRI_pipeline_connectome_stage_outputnode -->
<g id="edge50" class="edge"><title>fMRI_pipeline_connectome_stage_compute_matrice&#45;&gt;fMRI_pipeline_connectome_stage_outputnode</title>
<path fill="none" stroke="#0000ff" d="M219.916,-166.697C220.711,-158.983 220.938,-149.712 220.595,-141.112"/>
<polygon fill="#0000ff" stroke="#0000ff" points="224.085,-140.836 219.895,-131.104 217.102,-141.324 224.085,-140.836"/>
</g>
<!-- fMRI_pipeline_connectome_stage_outputnode&#45;&gt;fMRI_pipeline_outputnode -->
<g id="edge57" class="edge"><title>fMRI_pipeline_connectome_stage_outputnode&#45;&gt;fMRI_pipeline_outputnode</title>
<path fill="none" stroke="black" d="M214,-94.6966C214,-86.9827 214,-77.7125 214,-69.1124"/>
<polygon fill="black" stroke="black" points="217.5,-69.1043 214,-59.1043 210.5,-69.1044 217.5,-69.1043"/>
</g>
</g>
</svg>
